<svg xmlns="http://www.w3.org/2000/svg" width="279" height="16" viewBox="0 0 279 16"><g transform="translate(0.547 0.216)"><rect width="279" height="16" transform="translate(-0.547 -0.216)" fill="none"/><path d="M104.067.258h-2.5a.728.728,0,0,0-.728.728v13.35a.728.728,0,0,0,.728.728h2.5a.728.728,0,0,0,.728-.728V.986a.728.728,0,0,0-.728-.728" fill="#f24bcf"/><path d="M96.339.258h-3.06A.726.726,0,0,0,92.6.719L90.266,6.657q-.178.477-.419,1.252-.311.954-.486,1.431H89.25l-.331-1.033c-.089-.239-.177-.5-.265-.776s-.191-.569-.31-.874L85.924.711A.728.728,0,0,0,85.25.258H82.205a.727.727,0,0,0-.727.728v13.35a.727.727,0,0,0,.727.728h2.078a.727.727,0,0,0,.727-.728V10a20.787,20.787,0,0,0-.132-2.186q-.132-1.233-.375-2.941h.087l1.325,3.537,2.045,4.955a.727.727,0,0,0,.672.45h1.189a.727.727,0,0,0,.673-.452l2.024-4.953,1.368-3.537H94A37.956,37.956,0,0,0,93.467,10v4.34a.729.729,0,0,0,.728.728h2.144a.727.727,0,0,0,.727-.728V.986a.727.727,0,0,0-.727-.728" fill="#f24bcf"/><path d="M118.331.258H109.3a.727.727,0,0,0-.727.728v13.35a.727.727,0,0,0,.727.728h2.5a.728.728,0,0,0,.728-.728V10.147a.727.727,0,0,1,.727-.728H117.4a.727.727,0,0,0,.728-.727V7.186a.728.728,0,0,0-.728-.728H113.25a.727.727,0,0,1-.727-.728V3.947a.727.727,0,0,1,.727-.728h5.081a.728.728,0,0,0,.728-.728V.986a.728.728,0,0,0-.728-.728" fill="#f24bcf"/><path d="M75.367.894a9.184,9.184,0,0,0-7.9,0,6.293,6.293,0,0,0-2.638,2.6,8.385,8.385,0,0,0-.939,4.094,8.617,8.617,0,0,0,.939,4.134,6.461,6.461,0,0,0,2.649,2.682,8.773,8.773,0,0,0,7.882,0,6.466,6.466,0,0,0,2.651-2.682,8.629,8.629,0,0,0,.938-4.134,8.41,8.41,0,0,0-.938-4.084A6.3,6.3,0,0,0,75.367.894M73.976,11.009a3.2,3.2,0,0,1-5.112,0,5.635,5.635,0,0,1-.939-3.418,5.365,5.365,0,0,1,.928-3.348,3.331,3.331,0,0,1,5.134.01,5.326,5.326,0,0,1,.938,3.338,5.582,5.582,0,0,1-.949,3.418" fill="#f24bcf"/><path d="M59.565,9.877a.736.736,0,0,1,.265-1.022,4.471,4.471,0,0,0,1.388-1.283,4.5,4.5,0,0,0,.751-2.643,3.883,3.883,0,0,0-1.756-3.587A8.818,8.818,0,0,0,55.543.259h-5.3a.728.728,0,0,0-.728.727v13.35a.728.728,0,0,0,.728.728h2.5a.728.728,0,0,0,.728-.728V10.585a.727.727,0,0,1,.727-.728h.753a.726.726,0,0,1,.629.363l2.6,4.482a.728.728,0,0,0,.629.362h2.684a.728.728,0,0,0,.617-1.113ZM57.387,6.509a3.591,3.591,0,0,1-2.153.546H54.195a.727.727,0,0,1-.727-.728V3.809a.727.727,0,0,1,.727-.728h1.039a4.442,4.442,0,0,1,2.175.417,1.519,1.519,0,0,1,.718,1.431,1.845,1.845,0,0,1-.74,1.58" fill="#f24bcf"/><path d="M26.4,6.653a.727.727,0,0,1,.048-.87l3.62-4.33A.728.728,0,0,0,29.51.258H27.09a.727.727,0,0,0-.569.275l-4.44,5.588h-.067V.986a.728.728,0,0,0-.728-.728h-2.5a.728.728,0,0,0-.728.728v13.35a.728.728,0,0,0,.728.728h2.5a.728.728,0,0,0,.728-.728V11.448a.73.73,0,0,1,.164-.461l.99-1.209a.728.728,0,0,1,1.176.068l3.13,4.883a.73.73,0,0,0,.613.335h2.549a.728.728,0,0,0,.606-1.131Z" fill="#f24bcf"/><path d="M133.484.258h-2.446a.727.727,0,0,0-.672.449l-1.183,2.85-.4.954q-.246.576-.972,2.345h-.088l-1.325-3.3L125.218.707a.728.728,0,0,0-.672-.449h-2.514a.728.728,0,0,0-.647,1.062L125.7,9.68a.728.728,0,0,1,.081.333v4.323a.728.728,0,0,0,.727.728h2.475a.728.728,0,0,0,.728-.728V10.014a.727.727,0,0,1,.082-.335l4.335-8.358a.728.728,0,0,0-.646-1.063" fill="#f24bcf"/><path d="M45.614.258H43.271a.727.727,0,0,0-.727.728v7.5a4.758,4.758,0,0,1-.7,2.911,2.493,2.493,0,0,1-2.087.884,2.441,2.441,0,0,1-2.064-.874,4.874,4.874,0,0,1-.674-2.921V.986A.728.728,0,0,0,36.3.258H33.821a.728.728,0,0,0-.728.728V8.108q0,3.7,1.667,5.465a6.555,6.555,0,0,0,5,1.769,6.437,6.437,0,0,0,4.947-1.759q1.634-1.76,1.634-5.475V.986a.728.728,0,0,0-.728-.728" fill="#f24bcf"/><path d="M14.817,3.418h-1.8a.729.729,0,0,1-.722-.824L12.521.9A.729.729,0,0,0,11.8.079h-.765a.728.728,0,0,0-.721.628l-.29,2.083a.728.728,0,0,1-.721.628H7.344a.729.729,0,0,1-.722-.824L6.846.9A.728.728,0,0,0,6.125.079h-.77A.73.73,0,0,0,4.634.7L4.33,2.8a.729.729,0,0,1-.72.623H1.324A.728.728,0,0,0,.6,4.145v.79a.728.728,0,0,0,.728.728H3.1a.728.728,0,0,1,.722.822l-.23,1.764a.728.728,0,0,1-.721.634H.728A.728.728,0,0,0,0,9.611v.77a.728.728,0,0,0,.728.728h1.66a.728.728,0,0,1,.721.827l-.3,2.181a.727.727,0,0,0,.721.827h.805a.728.728,0,0,0,.721-.628l.356-2.579a.728.728,0,0,1,.721-.628H8.081a.728.728,0,0,1,.72.831l-.313,2.173a.728.728,0,0,0,.72.831h.822a.727.727,0,0,0,.721-.628l.357-2.579a.728.728,0,0,1,.721-.628H14.22a.728.728,0,0,0,.728-.728v-.77a.728.728,0,0,0-.728-.728H12.31a.728.728,0,0,1-.721-.822l.23-1.764a.727.727,0,0,1,.721-.634h2.277a.727.727,0,0,0,.727-.728v-.79a.727.727,0,0,0-.727-.727M9.268,8.249a.728.728,0,0,1-.722.634H6.6a.728.728,0,0,1-.721-.827l.242-1.764a.729.729,0,0,1,.721-.629H8.776a.728.728,0,0,1,.722.822Z" fill="#f24bcf"/><path d="M230.569,9.877a.736.736,0,0,1,.265-1.022,4.471,4.471,0,0,0,1.388-1.283,4.5,4.5,0,0,0,.751-2.643,3.883,3.883,0,0,0-1.756-3.587,8.818,8.818,0,0,0-4.67-1.083h-5.3a.728.728,0,0,0-.728.727v13.35a.728.728,0,0,0,.728.728h2.5a.727.727,0,0,0,.727-.728V10.585a.728.728,0,0,1,.728-.728h.753a.726.726,0,0,1,.629.363l2.6,4.482a.73.73,0,0,0,.63.362H232.5a.728.728,0,0,0,.617-1.113Zm-2.178-3.368a3.591,3.591,0,0,1-2.153.546H225.2a.728.728,0,0,1-.728-.728V3.809a.728.728,0,0,1,.728-.728h1.039a4.444,4.444,0,0,1,2.175.417,1.519,1.519,0,0,1,.718,1.431,1.845,1.845,0,0,1-.74,1.58" fill="#f24bcf"/><path d="M245.781,12.083h-4.948a.728.728,0,0,1-.728-.728V.987a.728.728,0,0,0-.728-.728h-2.5a.728.728,0,0,0-.728.728V14.336a.728.728,0,0,0,.728.728h8.9a.728.728,0,0,0,.728-.728V12.811a.728.728,0,0,0-.728-.728" fill="#f24bcf"/><path d="M213.9.894a9.184,9.184,0,0,0-7.9,0,6.3,6.3,0,0,0-2.638,2.6,8.384,8.384,0,0,0-.939,4.094,8.617,8.617,0,0,0,.939,4.134A6.461,6.461,0,0,0,206,14.407a8.775,8.775,0,0,0,7.883,0,6.469,6.469,0,0,0,2.65-2.682,8.629,8.629,0,0,0,.938-4.134,8.41,8.41,0,0,0-.938-4.084A6.3,6.3,0,0,0,213.9.894M212.5,11.009a3.2,3.2,0,0,1-5.112,0,5.635,5.635,0,0,1-.938-3.418,5.365,5.365,0,0,1,.927-3.348,3.331,3.331,0,0,1,5.134.01,5.326,5.326,0,0,1,.939,3.338,5.582,5.582,0,0,1-.95,3.418" fill="#f24bcf"/><path d="M260.2,2.057a9.424,9.424,0,0,0-6.116-1.8h-4a.727.727,0,0,0-.727.727v13.35a.728.728,0,0,0,.727.728H254.3a8.8,8.8,0,0,0,5.929-1.868,6.985,6.985,0,0,0,2.174-5.6q0-3.737-2.208-5.535m-3.025,9.082a4.836,4.836,0,0,1-3.334,1.063h-.53V3.1h.53a5.019,5.019,0,0,1,3.345,1,4.381,4.381,0,0,1,1.182,3.488,4.554,4.554,0,0,1-1.193,3.547" fill="#f24bcf"/><path d="M200.052.258h-2.23a.727.727,0,0,0-.718.613l-.984,6.144L195.5,11.7h-.111l-.4-2.027q-.354-1.788-.552-2.663L192.88.808a.728.728,0,0,0-.706-.55h-2.2a.728.728,0,0,0-.706.552l-1.541,6.2q-.6,2.7-.971,4.69h-.089l-.662-4.69-.943-6.14a.729.729,0,0,0-.72-.617h-2.5a.728.728,0,0,0-.714.871l2.688,13.35a.729.729,0,0,0,.714.585h3.7a.727.727,0,0,0,.71-.57l1.308-5.869q.109-.458.221-1.094c.074-.423.132-.748.177-.973l.265-1.372H191q.243,1.73.64,3.439l1.35,5.874a.728.728,0,0,0,.709.565h3.788a.727.727,0,0,0,.714-.591l2.569-13.35a.728.728,0,0,0-.715-.865" fill="#f24bcf"/><path d="M164.082.258h-2.475a.728.728,0,0,0-.728.728V5.174a.728.728,0,0,1-.728.728H156.2a.728.728,0,0,1-.728-.728V.986a.727.727,0,0,0-.727-.728h-2.5a.728.728,0,0,0-.728.728v13.35a.728.728,0,0,0,.728.728h2.5a.727.727,0,0,0,.727-.728V9.71a.728.728,0,0,1,.728-.728h3.954a.728.728,0,0,1,.728.728v4.626a.728.728,0,0,0,.728.728h2.475a.728.728,0,0,0,.728-.728V.986a.728.728,0,0,0-.728-.728" fill="#f24bcf"/><path d="M178.545,12.083h-5.257a.728.728,0,0,1-.728-.728V9.671a.728.728,0,0,1,.728-.728h4.042a.728.728,0,0,0,.728-.728V6.69a.727.727,0,0,0-.728-.727h-4.042a.728.728,0,0,1-.728-.728V3.948a.728.728,0,0,1,.728-.728H178.3a.728.728,0,0,0,.728-.728V.987A.728.728,0,0,0,178.3.259h-8.966a.728.728,0,0,0-.728.728V14.336a.728.728,0,0,0,.728.728h9.209a.728.728,0,0,0,.728-.728V12.811a.728.728,0,0,0-.728-.728" fill="#f24bcf"/><path d="M148.251.258h-11.4a.727.727,0,0,0-.727.728v1.5a.727.727,0,0,0,.727.728h2.983a.728.728,0,0,1,.728.728V14.336a.728.728,0,0,0,.727.728h2.5a.729.729,0,0,0,.728-.728V3.947a.728.728,0,0,1,.727-.728h3.006a.729.729,0,0,0,.728-.728V.986a.729.729,0,0,0-.728-.728" fill="#f24bcf"/></g></svg>