<svg xmlns="http://www.w3.org/2000/svg" xmlns:xlink="http://www.w3.org/1999/xlink" width="245.118" height="201" viewBox="0 0 245.118 201">
<g transform="translate(-339.5 -1055.5)">
<path d="M242.886,14.957c.126-.233.271-.452.378-.7a10.467,10.467,0,0,0,.408-1.232c.069-.245.17-.471.221-.723a10.035,10.035,0,0,0,.207-1.911c0-.063.019-.126.019-.189h0V10.2A10.2,10.2,0,0,0,233.919,0h-.031a10.107,10.107,0,0,0-2.665.409c-.232.063-.452.132-.678.207A10.161,10.161,0,0,0,228.3,1.7l-.094.05-.089.076a10.366,10.366,0,0,0-2.186,2.105l-.208.2c-.031.044-.044.1-.075.144a10.19,10.19,0,0,0-1.257,2.4c-.088.226-.151.459-.22.691a10.094,10.094,0,0,0-.421,2.552c0,.1-.044.188-.044.289,0,.289.082.559.1.842a10.83,10.83,0,0,0,.176,1.364,10.344,10.344,0,0,0,.333,1.087c.126.352.244.691.4,1.024.082.17.119.358.2.522h0C209.2,21.493,163.7,42.93,155.335,48.02a2.633,2.633,0,0,0-1.263,2.193c-.076,3.23.025,7.083.308,11.846-10.582-3.683-17.651-5.851-32.324-5.851s-21.742,2.169-32.324,5.851c.282-4.764.389-8.616.314-11.846a2.652,2.652,0,0,0-1.269-2.193C80.413,42.93,34.913,21.493,19.2,15.045h0c.075-.138.107-.3.17-.446a8.8,8.8,0,0,0,.465-1.181c.107-.321.226-.635.3-.968a10.613,10.613,0,0,0,.188-1.5c.019-.252.094-.484.094-.742,0-.119-.05-.22-.056-.339A10.4,10.4,0,0,0,19.983,7.5c-.075-.277-.157-.547-.251-.817a10.479,10.479,0,0,0-1.15-2.256c-.031-.044-.044-.107-.076-.151l-.264-.264a10.456,10.456,0,0,0-1.923-1.911l-.258-.251c-.044-.031-.095-.038-.132-.069A10.62,10.62,0,0,0,13.711.679c-.282-.1-.559-.182-.854-.264A9.978,9.978,0,0,0,10.594.063C10.456.057,10.343,0,10.2,0A10.205,10.205,0,0,0,0,10.206v.013a10,10,0,0,0,.233,2.143c.031.151.094.283.132.434a11.047,11.047,0,0,0,.528,1.571c.069.151.164.282.233.427a9.9,9.9,0,0,0,.817,1.37c.094.132.207.251.308.377A10.178,10.178,0,0,0,3.306,17.7c.044.038.076.088.113.126l.232.157a10.086,10.086,0,0,0,2.759,1.69l.031.019c.163.069.345.1.515.157a10.8,10.8,0,0,0,1.282.377,10.137,10.137,0,0,0,1.458.145c.169.006.327.05.5.05H10.2a10.17,10.17,0,0,0,1.4-.107c.742,9.32,3,29.657,5.222,47.782l.371,3.048c1.772,14.266,3.456,26.634,4.254,30.323a2.65,2.65,0,0,0,1.986,2.017c4.833,1.112,11.135,2.79,15.553,4a70.32,70.32,0,0,0-5.511,27.551,68.844,68.844,0,0,0,3.493,21.556c5.549,17.088,20.02,27.237,32.588,33.126C81.18,195.161,97.945,200,122.056,200s40.876-4.839,52.5-10.287c12.568-5.889,27.039-16.038,32.588-33.126.735-2.262,1.338-4.519,1.841-6.781a78.5,78.5,0,0,0,1.653-14.737,70.277,70.277,0,0,0-5.511-27.589c4.418-1.207,10.721-2.885,15.552-4a2.639,2.639,0,0,0,1.986-2.017c.8-3.689,2.489-16.088,4.261-30.373l.377-3.042c2.212-18.112,4.468-38.424,5.209-47.737a9.949,9.949,0,0,0,5.361-.691l.125-.082a10.21,10.21,0,0,0,2.633-1.716l.22-.138c.043-.044.075-.1.119-.144a10.712,10.712,0,0,0,.792-.892c.17-.207.352-.4.51-.622A9.466,9.466,0,0,0,242.886,14.957Z" transform="translate(340 1056)" fill="#000"/>
</g></svg>
