<svg xmlns="http://www.w3.org/2000/svg" xmlns:xlink="http://www.w3.org/1999/xlink" width="586" height="346" viewBox="0 0 586 346"><defs><clipPath id="a"><rect width="586" height="346" transform="translate(68 511)" fill="rgba(255,255,255,0.68)"/></clipPath><clipPath id="b"><ellipse cx="217" cy="205" rx="217" ry="205" transform="translate(144 511)" fill="#fff" opacity="0.486"/></clipPath></defs><g transform="translate(-68 -511)" clip-path="url(#a)"><g clip-path="url(#b)"><path d="M583.043,35.9c.3-.558.65-1.085.906-1.674a25.1,25.1,0,0,0,.98-2.956c.166-.588.407-1.131.529-1.734a24.085,24.085,0,0,0,.5-4.585c0-.151.044-.3.044-.452h0V24.48A24.487,24.487,0,0,0,561.519,0h-.075a24.265,24.265,0,0,0-6.4.98c-.557.151-1.085.317-1.627.5a24.4,24.4,0,0,0-5.4,2.595l-.226.12-.213.181a24.882,24.882,0,0,0-5.249,5.052l-.5.483c-.075.105-.1.241-.181.346a24.457,24.457,0,0,0-3.017,5.762c-.211.543-.362,1.1-.529,1.659A24.221,24.221,0,0,0,537.1,23.8c0,.241-.106.452-.106.694,0,.694.2,1.342.242,2.021a26,26,0,0,0,.423,3.273,24.821,24.821,0,0,0,.8,2.609c.3.845.587,1.659.965,2.459.2.408.286.86.482,1.252h0c-37.724,15.475-146.949,66.922-167.024,79.14a6.318,6.318,0,0,0-3.032,5.264c-.181,7.752.06,17,.739,28.431-25.4-8.838-42.37-14.042-77.592-14.042-35.206,0-52.191,5.2-77.592,14.042.678-11.433.935-20.679.754-28.431a6.365,6.365,0,0,0-3.047-5.264c-20.077-12.218-129.3-63.665-167.025-79.14h0c.181-.332.256-.724.407-1.071A21.123,21.123,0,0,0,47.606,32.2c.257-.77.543-1.524.724-2.323a25.467,25.467,0,0,0,.452-3.605c.045-.6.226-1.161.226-1.78,0-.286-.12-.527-.134-.814a24.955,24.955,0,0,0-.906-5.671c-.181-.664-.377-1.312-.6-1.961a25.147,25.147,0,0,0-2.76-5.415c-.075-.106-.107-.256-.182-.362l-.633-.633a25.1,25.1,0,0,0-4.615-4.585l-.618-.6c-.106-.075-.227-.09-.317-.166a25.494,25.494,0,0,0-5.326-2.655c-.678-.241-1.342-.437-2.05-.633A23.957,23.957,0,0,0,25.432.151C25.1.136,24.829,0,24.5,0A24.5,24.5,0,0,0,0,24.495v.03a24.007,24.007,0,0,0,.559,5.143c.075.362.225.679.317,1.041a26.509,26.509,0,0,0,1.266,3.771c.166.361.393.678.559,1.025a23.766,23.766,0,0,0,1.961,3.289c.226.317.5.6.739.905a24.428,24.428,0,0,0,2.534,2.774c.1.09.181.212.271.3l.558.377a24.212,24.212,0,0,0,6.622,4.057l.075.046c.392.166.829.241,1.237.377a25.934,25.934,0,0,0,3.077.9,24.339,24.339,0,0,0,3.5.347c.407.015.784.121,1.208.121H24.5a24.416,24.416,0,0,0,3.349-.257c1.78,22.368,7.211,71.177,12.535,114.676l.89,7.315c4.253,34.239,8.3,63.922,10.212,72.776a6.36,6.36,0,0,0,4.767,4.842c11.6,2.669,26.729,6.7,37.334,9.592a168.74,168.74,0,0,0-13.229,66.124c-.318,24.947,6.622,46.274,8.386,51.735,13.32,41.01,48.058,65.369,78.228,79.5,27.9,13.077,68.149,24.69,126.026,24.69s98.121-11.613,126.028-24.69c30.169-14.134,64.906-38.492,78.227-79.5,1.764-5.43,3.211-10.845,4.418-16.275,2.58-12.488,3.4-20.664,3.967-35.37A168.636,168.636,0,0,0,492.4,257.949c10.605-2.9,25.734-6.923,37.333-9.592a6.335,6.335,0,0,0,4.767-4.842c1.931-8.854,5.974-38.612,10.229-72.9l.9-7.3c5.309-43.469,10.724-92.216,12.5-114.57a23.887,23.887,0,0,0,12.868-1.659l.3-.2a24.509,24.509,0,0,0,6.321-4.118l.528-.332c.1-.105.18-.241.286-.346a25.707,25.707,0,0,0,1.9-2.142c.408-.5.846-.966,1.223-1.493A22.717,22.717,0,0,0,583.043,35.9Z" transform="translate(68 377)" fill="#1a1a1a"/></g></g></svg>